<?xml version="1.0" encoding="iso-8859-1"?>
<!-- Uploaded to: SVG Repo, www.svgrepo.com, Generator: SVG Repo Mixer Tools -->
<!DOCTYPE svg PUBLIC "-//W3C//DTD SVG 1.1//EN" "http://www.w3.org/Graphics/SVG/1.1/DTD/svg11.dtd">
<svg fill="#000000" height="800px" width="800px" version="1.1" id="Capa_1" xmlns="http://www.w3.org/2000/svg" xmlns:xlink="http://www.w3.org/1999/xlink" 
	 viewBox="0 0 59 59" xml:space="preserve">
<g>
	<path d="M47,33.5c-6.617,0-12,5.383-12,12s5.383,12,12,12s12-5.383,12-12S53.617,33.5,47,33.5z M47,55.5c-5.514,0-10-4.486-10-10
		s4.486-10,10-10s10,4.486,10,10S52.514,55.5,47,55.5z"/>
	<path d="M53,44.5h-5v-5c0-0.553-0.447-1-1-1s-1,0.447-1,1v6c0,0.553,0.447,1,1,1h6c0.553,0,1-0.447,1-1S53.553,44.5,53,44.5z"/>
	<path d="M33.818,38.347v-0.004c0.004-0.005,0.009-0.012,0.013-0.017c0.45-0.823,0.976-1.599,1.567-2.32
		c0.655-1.132,1.214-2.334,1.653-3.603c1.267-0.602,2.085-1.864,2.085-3.289v-3.545c0-0.867-0.318-1.708-0.887-2.369v-4.667
		c0.052-0.52,0.236-3.448-1.883-5.864C34.524,10.565,31.541,9.5,27.5,9.5s-7.024,1.065-8.867,3.168
		c-2.119,2.416-1.935,5.346-1.883,5.864v4.667c-0.568,0.661-0.887,1.502-0.887,2.369v3.545c0,1.101,0.494,2.128,1.34,2.821
		c0.81,3.173,2.477,5.575,3.093,6.389v2.894c0,0.816-0.445,1.566-1.162,1.958l-7.907,4.313c-0.252,0.137-0.502,0.297-0.752,0.476
		C5.276,43.292,2,36.522,2,29C2,14.939,13.439,3.5,27.5,3.5S53,14.939,53,29c0,0.909-0.051,1.807-0.144,2.691
		c0.658,0.28,1.283,0.619,1.889,0.987C54.907,31.474,55,30.248,55,29C55,13.837,42.663,1.5,27.5,1.5S0,13.837,0,29
		c0,8.009,3.444,15.228,8.926,20.258l-0.026,0.023l0.892,0.752c0.058,0.049,0.121,0.089,0.178,0.137
		c0.474,0.393,0.965,0.766,1.465,1.127c0.162,0.117,0.324,0.235,0.489,0.348c0.534,0.368,1.082,0.717,1.642,1.048
		c0.122,0.072,0.245,0.142,0.368,0.212c0.613,0.349,1.239,0.678,1.88,0.98c0.047,0.022,0.094,0.042,0.142,0.064
		c2.089,0.971,4.319,1.684,6.651,2.105c0.061,0.011,0.122,0.022,0.184,0.033c0.724,0.125,1.456,0.225,2.197,0.292
		c0.09,0.008,0.181,0.013,0.271,0.021c0.741,0.06,1.487,0.099,2.243,0.099c0.749,0,1.489-0.039,2.222-0.098
		c0.093-0.008,0.186-0.013,0.279-0.021c0.735-0.067,1.46-0.164,2.178-0.287c0.062-0.011,0.125-0.022,0.187-0.034
		c1.114-0.2,2.204-0.47,3.267-0.8C33.375,52.634,32,49.228,32,45.5C32,42.912,32.659,40.474,33.818,38.347z"/>
</g>
</svg>